<svg width="655" height="361" viewBox="0 0 655 361" fill="none" xmlns="http://www.w3.org/2000/svg">
<g clip-path="url(#clip0_103_2)">
<path d="M99.0052 239.004H272.753C284.589 239.004 295.94 243.705 304.309 252.074C312.678 260.443 317.379 271.794 317.379 283.63V358.004H303.379V316.964C303.379 305.129 298.678 293.778 290.309 285.409C281.94 277.04 270.589 272.338 258.753 272.338H113.005C101.17 272.338 89.8188 277.04 81.4498 285.409C73.0808 293.778 68.3792 305.129 68.3792 316.964V358.004H54.3792V283.63C54.3792 271.794 59.0808 260.443 67.4498 252.074C75.8188 243.705 87.1696 239.004 99.0052 239.004V239.004Z" fill="#F2F2F2"/>
<path d="M147.879 251.004C122.75 251.004 102.379 248.094 102.379 244.504C102.379 240.914 122.75 238.004 147.879 238.004C173.008 238.004 193.379 240.914 193.379 244.504C193.379 248.094 173.008 251.004 147.879 251.004Z" fill="#E6E6E6"/>
<path d="M113.482 246.133H174.087C189.047 231.796 199.744 217.977 191.18 206.508C191.18 203.21 189.871 200.048 187.539 197.717C185.208 195.386 182.046 194.076 178.749 194.076H108.821C105.524 194.076 102.362 195.386 100.03 197.717C97.6988 200.048 96.389 203.21 96.389 206.508C93.1283 219.577 98.9536 232.788 113.482 246.133Z" fill="#F2F2F2"/>
<path d="M124.366 178.426C124.941 178.452 125.511 178.301 125.997 177.993C126.483 177.685 126.863 177.235 127.085 176.704C127.307 176.173 127.361 175.587 127.239 175.024C127.116 174.462 126.824 173.95 126.401 173.56L126.209 172.795C126.234 172.734 126.26 172.672 126.285 172.611C126.864 171.243 127.835 170.076 129.075 169.258C130.315 168.44 131.77 168.006 133.256 168.012C134.742 168.017 136.193 168.462 137.427 169.289C138.661 170.117 139.623 171.29 140.192 172.663C142.466 178.141 145.362 183.629 146.075 189.421C146.389 191.981 146.257 194.576 145.684 197.091C151.026 185.438 153.8 172.772 153.818 159.953C153.819 156.736 153.64 153.521 153.283 150.324C152.987 147.703 152.577 145.101 152.052 142.518C149.189 128.5 143.041 115.361 134.114 104.18C129.793 101.823 126.299 98.1977 124.102 93.7931C123.306 92.2098 122.744 90.5197 122.432 88.7752C122.919 88.8392 124.27 81.4161 123.902 80.9607C124.581 79.93 125.797 79.4176 126.539 78.4118C130.228 73.4097 135.312 74.2831 137.965 81.0806C143.634 83.9416 143.689 88.6864 140.21 93.2498C137.998 96.153 137.693 100.081 135.752 103.19C135.952 103.445 136.159 103.693 136.359 103.949C140.011 108.644 143.193 113.686 145.861 119.003C145.213 113.047 145.987 107.022 148.121 101.424C150.284 96.2066 154.337 91.8126 157.907 87.3023C162.195 81.8848 170.987 84.2491 171.743 91.1167C171.75 91.1832 171.757 91.2497 171.764 91.3161C171.234 91.6152 170.715 91.9327 170.207 92.2686C169.569 92.6948 169.075 93.3038 168.789 94.0158C168.503 94.7278 168.439 95.5096 168.604 96.2587C168.77 97.0077 169.159 97.6892 169.719 98.2138C170.279 98.7384 170.984 99.0816 171.742 99.1985L171.82 99.2105C171.631 101.121 171.297 103.015 170.821 104.876C175.401 122.586 165.514 129.036 151.397 129.326C151.085 129.486 150.782 129.645 150.47 129.797C153.15 137.394 154.832 145.307 155.472 153.337C155.834 158.074 155.813 162.833 155.408 167.567L155.432 167.4C156.455 162.135 159.263 157.385 163.382 153.952C169.5 148.926 178.144 147.075 184.745 143.035C185.446 142.585 186.262 142.345 187.096 142.343C187.929 142.341 188.746 142.577 189.45 143.024C190.153 143.471 190.714 144.11 191.067 144.865C191.419 145.621 191.549 146.461 191.439 147.287C191.43 147.346 191.421 147.405 191.412 147.464C190.428 147.865 189.47 148.326 188.544 148.846C188.013 149.145 187.494 149.463 186.986 149.799C186.349 150.225 185.854 150.834 185.568 151.546C185.282 152.258 185.218 153.04 185.384 153.789C185.55 154.538 185.938 155.219 186.498 155.744C187.058 156.268 187.764 156.612 188.522 156.729L188.6 156.74C188.655 156.748 188.703 156.756 188.759 156.764C187.078 160.779 184.718 164.473 181.784 167.687C178.92 183.147 166.622 184.614 153.466 180.112H153.458C152.015 186.384 149.924 192.49 147.218 198.33H124.925C124.845 198.082 124.773 197.826 124.701 197.579C126.765 197.708 128.836 197.585 130.87 197.211C129.216 195.182 127.562 193.136 125.908 191.107C125.871 191.069 125.836 191.029 125.804 190.987C124.965 189.948 124.118 188.917 123.279 187.879L123.279 187.877C123.234 184.693 123.599 181.517 124.366 178.426L124.366 178.426Z" fill="#F2F2F2"/>
<path d="M301.013 245.975L293.017 238.365L318.564 203.905L330.364 215.136L301.013 245.975Z" fill="#FFB6B6"/>
<path d="M308.834 242.982L296.786 230.062L291.577 235.535L271.451 232.364C270.457 232.207 269.439 232.372 268.545 232.835C267.652 233.298 266.929 234.034 266.484 234.937C266.039 235.839 265.893 236.86 266.069 237.851C266.245 238.842 266.733 239.75 267.462 240.444L282.67 254.918L290.443 251.999L286.314 258.387L292.048 263.844L308.834 242.982Z" fill="#2F2E41"/>
<path d="M302.379 220.004L313.379 235.004C322.689 230.044 352.403 210.362 375.163 200.052C389.873 193.372 401.223 188.292 401.223 188.292C401.223 188.292 402.753 190.462 405.193 193.872C414.123 206.372 435.213 235.462 437.223 234.382C439.773 233.012 442.663 235.462 442.303 240.482C442.043 244.142 448.233 246.812 451.613 248.002C452.883 248.442 453.753 248.682 453.753 248.682C454.333 249.052 454.913 249.422 455.483 249.772C473.993 261.082 495.683 257.892 510.583 245.772C515.92 241.467 520.273 236.068 523.348 229.939C526.424 223.811 528.151 217.094 528.413 210.242L529.743 179.242L484.743 177.242L476.733 192.452L462.523 180.872L431.413 155.522L420.053 146.262C420.053 146.262 420.353 146.222 419.993 144.862C418.57 144.091 417.081 143.448 415.543 142.942C415.283 142.852 415.023 142.772 414.763 142.702C400.113 138.382 389.003 149.622 389.003 149.622C389.003 149.622 321.049 195.574 318.379 196.004C315.709 196.444 314.173 200.732 313.853 201.752C313.543 202.712 309.289 208.134 307.379 208.004C301.419 207.614 302.379 220.004 302.379 220.004Z" fill="#2F2E41"/>
<path d="M437.282 127.165C438.536 127.581 439.683 128.269 440.641 129.18C441.598 130.09 442.343 131.201 442.822 132.432L484.086 132.205L506.036 101.844L522.353 109.067L495.797 157.182L437.665 144.214L437.7 144.092C436.353 144.616 434.901 144.807 433.465 144.651C432.029 144.494 430.652 143.994 429.45 143.193C428.247 142.393 427.256 141.314 426.558 140.049C425.861 138.784 425.478 137.37 425.443 135.926C425.407 134.482 425.72 133.05 426.354 131.753C426.988 130.455 427.925 129.329 429.087 128.47C430.248 127.61 431.599 127.043 433.025 126.816C434.452 126.589 435.912 126.709 437.282 127.165L437.282 127.165Z" fill="#FFB6B6"/>
<path d="M513.746 81.1545L514.603 81.2801C519.078 81.9309 523.121 84.3081 525.866 87.9028C528.611 91.4975 529.839 96.024 529.287 100.513C528.625 105.822 528.239 110.574 528.819 111.519C530.248 113.845 530.794 115.794 527.991 116.085C525.189 116.377 531.03 114.661 522.101 116.154C513.173 117.647 514.752 112.903 507.479 112.589C500.205 112.276 495.298 114.153 493.007 110.054C490.716 105.956 484.327 105.788 487.836 101.76C491.345 97.7333 492.295 101.211 495.137 92.6721C495.166 92.5867 495.194 92.5017 495.223 92.4171C496.506 88.6701 499.062 85.4914 502.446 83.4337C505.83 81.376 509.829 80.5695 513.746 81.1545V81.1545Z" fill="#6C63FF"/>
<path d="M537.837 70.5542C538.898 71.5885 540.028 72.5507 541.217 73.4342C541.567 73.7042 541.917 73.9542 542.267 74.1842C552.417 81.0542 562.437 78.1142 570.247 70.9442C582.317 59.8442 589.097 38.6142 582.837 27.8342C568.817 10.7342 550.617 14.4042 539.557 26.0242C528.817 37.2942 524.797 56.0542 537.837 70.5542Z" fill="#F2F2F2"/>
<path d="M493.773 84.7923C494.633 84.2423 495.493 83.7123 496.373 83.2023C496.763 82.6723 497.163 82.1523 497.573 81.6423L493.773 84.7923Z" fill="#F2F2F2"/>
<path d="M518.293 39.4323C504.976 49.5629 490.145 57.6256 487.349 68.7744C487.349 68.7744 489.024 51.2572 481.212 54.5775C468.087 60.1563 472.528 29.8164 476.209 24.8552C482.343 16.5865 503.028 11.8882 503.028 11.8882L517.702 19.9435L518.293 39.4323Z" fill="#2F2E41"/>
<path d="M456.966 355.843C456.693 356.636 456.176 357.323 455.489 357.804C454.802 358.285 453.98 358.536 453.142 358.521L436.757 358.1C435.913 358.083 435.096 357.794 434.429 357.275C433.762 356.756 433.281 356.035 433.058 355.22L430.74 330.427C429.917 330.8 429.022 330.984 428.119 330.965C427.334 330.947 426.56 330.773 425.842 330.455C425.125 330.137 424.476 329.681 423.935 329.112C423.393 328.543 422.969 327.873 422.687 327.141C422.405 326.408 422.269 325.627 422.289 324.842C422.309 324.057 422.483 323.284 422.802 322.566C423.121 321.848 423.578 321.201 424.147 320.66C424.716 320.119 425.387 319.696 426.12 319.414C426.853 319.133 427.634 318.998 428.419 319.019C428.78 319.018 429.14 319.055 429.493 319.13C429.876 318.715 430.343 318.385 430.862 318.161C431.381 317.937 431.942 317.824 432.507 317.83L457.71 318.481C457.919 318.488 458.127 318.514 458.331 318.558C458.884 318.661 459.408 318.881 459.869 319.204C460.329 319.526 460.715 319.944 461.001 320.428C461.286 320.912 461.465 321.452 461.524 322.011C461.584 322.57 461.523 323.136 461.345 323.669L456.966 355.843ZM430.264 328.743L428.615 322.835C428.427 322.153 428.423 321.433 428.602 320.748C428.522 320.748 428.451 320.71 428.371 320.71C427.24 320.687 426.146 321.113 425.329 321.895C424.511 322.678 424.038 323.752 424.011 324.883C423.985 326.014 424.408 327.109 425.187 327.929C425.967 328.749 427.04 329.226 428.171 329.255C428.902 329.278 429.626 329.101 430.264 328.743V328.743Z" fill="#CCCCCC"/>
<path d="M458.332 318.558C457.795 321.628 451.758 323.786 444.499 323.411C437.824 323.103 432.366 320.759 431.366 317.982C431.736 317.872 432.121 317.821 432.507 317.83L457.71 318.48C457.919 318.488 458.127 318.514 458.332 318.558V318.558Z" fill="white"/>
<path d="M495.104 51.7258C482.401 51.7258 472.104 41.4284 472.104 28.7258C472.104 16.0233 482.401 5.72583 495.104 5.72583C507.806 5.72583 518.104 16.0233 518.104 28.7258C518.104 41.4284 507.806 51.7258 495.104 51.7258Z" fill="#FFB6B6"/>
<path d="M503.387 19.9255L504.272 23.8129L488.8 27.3351C488.787 26.5489 488.61 25.774 488.283 25.0591C487.956 24.3442 487.484 23.7046 486.898 23.1806C487.231 24.7049 487.193 26.2871 486.787 27.7935C478.443 32.4756 478.922 34.1344 472.179 32.9404C471.265 33.1484 470.306 32.985 469.513 32.486C468.72 31.987 468.157 31.1935 467.949 30.2798V30.2798C465.236 18.3613 464.345 6.17977 476.205 3.22139C479.087 2.50058 482.085 2.36259 485.022 2.8155C487.959 3.26841 490.776 4.30308 493.308 5.8589C495.839 7.41471 498.035 9.46035 499.766 11.8758C501.497 14.2913 502.728 17.028 503.387 19.9255Z" fill="#2F2E41"/>
<path d="M385.939 164.533C385.994 164.468 386.057 164.409 386.127 164.36C386.299 164.161 386.508 163.997 386.743 163.878L388.426 162.977L399.6 150.572C400.246 150.235 400.999 150.163 401.698 150.371L401.727 150.38L406.513 151.86L410.629 153.138L416.38 154.92L455.546 167.048L481.291 175.019C481.987 175.239 482.568 175.724 482.91 176.369C483.253 177.014 483.328 177.767 483.12 178.467C482.999 178.852 482.799 179.208 482.532 179.511L481.713 180.423L479.995 182.337L476.014 190.588L474.909 191.821C474.557 192.213 474.101 192.497 473.593 192.639C473.085 192.782 472.548 192.777 472.043 192.625L387.228 169.04C386.788 168.897 386.389 168.649 386.067 168.315C385.746 167.982 385.511 167.575 385.383 167.13C385.256 166.685 385.24 166.215 385.337 165.762C385.434 165.309 385.641 164.887 385.939 164.533L385.939 164.533Z" fill="#CCCCCC"/>
<path d="M390.974 41.8275L392.617 42.0937C393.067 42.1684 393.469 42.4181 393.736 42.7884L394.46 43.8003L400.987 60.1221C401.253 60.4953 401.36 60.9587 401.284 61.4105L400.519 66.0609L403.409 149.067C403.336 149.496 403.106 149.882 402.763 150.151L390.09 167.103L389.794 167.338L389.156 167.838C388.829 168.09 388.422 168.219 388.009 168.202L386.932 168.151C386.688 168.139 386.448 168.075 386.23 167.964C386.012 167.853 385.82 167.697 385.667 167.506C385.512 167.316 385.4 167.096 385.338 166.86C385.276 166.623 385.265 166.376 385.307 166.136L388.984 43.2477C389.058 42.7963 389.309 42.393 389.68 42.1264C390.052 41.8598 390.515 41.7518 390.966 41.8262L390.974 41.8275Z" fill="#CCCCCC"/>
<path d="M393.725 48.2771L399.507 65.8911L401.743 136.244L392.743 144.244L393.725 48.2771Z" fill="#6C63FF"/>
<path d="M508.558 57.4147L515.948 53.9512L523.224 66.6118C523.224 66.6118 542.766 94.4984 543.05 114.617C543.333 134.735 539.865 140.717 539.865 140.717C539.865 140.717 548.291 147.016 544.078 150.867C539.865 154.717 530.538 156.379 537.702 158.048C544.865 159.717 543.05 176.617 535.05 179.617C527.05 182.617 484.085 182.59 484.085 182.59C484.472 181.28 484.5 179.89 484.168 178.565C483.835 177.241 483.154 176.029 482.196 175.056C478.865 171.717 475.865 174.113 478.865 168.915C481.865 163.717 486.865 166.717 482.865 159.717C478.865 152.717 478.866 150.625 478.866 150.625C478.866 150.625 481.011 101.268 493.293 84.4323L493.032 83.9692C492.624 78.491 493.89 73.0181 496.663 68.2759C499.436 63.5336 503.584 59.7459 508.558 57.4147V57.4147Z" fill="#6C63FF"/>
<path d="M499.602 35.4352C498.845 32.115 497.36 29.0044 495.255 26.3278C493.149 23.6511 490.476 21.475 487.428 19.9566C484.38 18.4382 481.033 17.6154 477.628 17.5473C474.223 17.4793 470.846 18.1678 467.739 19.5632C468.815 16.3874 470.993 13.702 473.878 11.9931L491.293 4.43228C499.883 2.47671 513.482 -3.07376 519.686 2.24155C525.403 7.12443 522.621 16.6826 527.885 22.0356C533.654 27.902 534.144 34.8386 532.508 38.8283C530.615 43.444 526.828 49.7412 522.103 51.1042C521.857 49.4798 521.047 47.9939 519.814 46.9075C520.155 48.4556 520.185 50.0559 519.902 51.6156L491.293 74.4323C493.965 72.1083 496.241 66.1204 497.809 59.3761C498.737 55.384 504.274 53.9829 499.784 47.2076C495.293 40.4323 500.212 38.1137 499.602 35.4352Z" fill="#2F2E41"/>
<path d="M510.293 265.432H500.293V344.432C500.293 345.758 500.82 347.03 501.758 347.968C502.695 348.906 503.967 349.432 505.293 349.432C506.619 349.432 507.891 348.906 508.829 347.968C509.766 347.03 510.293 345.758 510.293 344.432V265.432Z" fill="#F2F2F2"/>
<path d="M539.314 357.656L525.322 339.097C520.882 333.209 516.625 327.086 511.935 321.406C510.268 319.388 508.332 317.302 505.867 316.692C504.896 316.443 503.873 316.486 502.927 316.817C501.808 317.207 500.777 317.812 499.889 318.596C497.827 320.506 496.097 322.745 494.77 325.222C493.024 328.256 491.409 331.369 489.905 334.53C486.498 341.731 483.727 349.217 481.624 356.901C480.598 360.618 474.808 359.04 475.838 355.306C477.92 347.79 480.601 340.452 483.855 333.364C485.44 329.903 487.164 326.511 489.027 323.188C490.58 320.237 492.536 317.517 494.84 315.106C497.17 312.644 500.275 311.057 503.635 310.609C507.24 310.216 510.584 311.841 513.261 314.123C515.95 316.416 517.971 319.448 520.083 322.249L527.526 332.12L544.495 354.627C545.471 355.922 544.702 357.982 543.419 358.732C542.728 359.115 541.915 359.216 541.151 359.016C540.387 358.815 539.729 358.328 539.314 357.656H539.314Z" fill="#F2F2F2"/>
<path d="M443.293 157.432C444.615 157.431 445.92 157.722 447.116 158.283C448.312 158.844 449.37 159.663 450.213 160.68L489.293 147.432L500.531 111.692L518.293 113.393L508.293 167.432L449.041 173.487L449.035 173.361C447.923 174.283 446.605 174.924 445.194 175.229C443.782 175.534 442.317 175.494 440.924 175.114C439.53 174.734 438.248 174.024 437.187 173.044C436.126 172.064 435.316 170.843 434.826 169.484C434.337 168.125 434.181 166.668 434.373 165.237C434.565 163.805 435.098 162.44 435.929 161.259C436.759 160.077 437.862 159.112 439.144 158.446C440.425 157.78 441.849 157.432 443.293 157.432L443.293 157.432Z" fill="#FFB6B6"/>
<path d="M501.311 89.627L502.164 89.4756C506.616 88.6795 511.203 89.6582 514.942 92.202C518.682 94.7459 521.277 98.6528 522.172 103.086C523.22 108.333 524.354 112.963 525.203 113.676C527.293 115.432 528.427 117.109 525.86 118.271C523.293 119.432 528.293 115.96 520.293 120.196C512.293 124.432 512.293 119.432 505.293 121.432C498.293 123.432 494.23 126.763 490.761 123.598C487.293 120.432 481.179 122.29 483.236 117.361C485.293 112.432 487.293 115.432 487.293 106.432C487.293 106.342 487.293 106.253 487.294 106.163C487.328 102.203 488.749 98.3795 491.31 95.3583C493.871 92.3371 497.41 90.3092 501.311 89.627V89.627Z" fill="#6C63FF"/>
<path d="M225.879 260.004C204.064 260.004 186.379 257.094 186.379 253.504C186.379 249.914 204.064 247.004 225.879 247.004C247.694 247.004 265.379 249.914 265.379 253.504C265.379 257.094 247.694 260.004 225.879 260.004Z" fill="#E6E6E6"/>
<path d="M186.174 215.963C186.159 225.508 189.61 234.733 195.885 241.924C197.449 243.728 199.177 245.384 201.046 246.869C203.882 249.147 207.021 251.019 210.373 252.432H241.094C244.446 251.019 247.585 249.147 250.421 246.869C252.291 245.384 254.019 243.728 255.583 241.924C257.42 239.81 259.029 237.508 260.385 235.057C263.211 229.929 264.862 224.238 265.222 218.395C265.581 212.551 264.639 206.701 262.464 201.266C260.289 195.83 256.934 190.946 252.642 186.964C248.351 182.982 243.229 180.002 237.646 178.239C232.063 176.477 226.158 175.975 220.358 176.771C214.558 177.566 209.007 179.639 204.105 182.84C199.203 186.041 195.072 190.289 192.011 195.28C188.95 200.27 187.034 205.878 186.403 211.698C186.249 213.115 186.172 214.538 186.174 215.963V215.963Z" fill="#3F3D56"/>
<path d="M195.885 241.924C197.449 243.729 199.177 245.384 201.046 246.869H250.421C252.291 245.384 254.019 243.729 255.583 241.924H195.885Z" fill="#6C63FF"/>
<path d="M186.403 211.698C194.667 224.524 209.879 234.476 228.398 237.498C239.099 239.319 250.084 238.48 260.385 235.057C263.211 229.929 264.862 224.238 265.222 218.395C265.581 212.551 264.639 206.701 262.464 201.266C260.289 195.83 256.934 190.946 252.642 186.964C248.351 182.982 243.229 180.002 237.646 178.239C232.063 176.477 226.158 175.975 220.358 176.771C214.558 177.566 209.007 179.639 204.105 182.84C199.203 186.041 195.072 190.289 192.011 195.28C188.95 200.27 187.034 205.878 186.403 211.698V211.698Z" fill="#6C63FF"/>
<path d="M315.205 272.115L306.439 265.407L328.142 228.405L341.079 238.306L315.205 272.115Z" fill="#FFB6B6"/>
<path d="M322.66 268.3L309.296 256.748L304.704 262.747L284.354 261.753C283.348 261.704 282.354 261.977 281.515 262.534C280.676 263.09 280.037 263.899 279.691 264.844C279.345 265.789 279.31 266.82 279.592 267.786C279.873 268.752 280.456 269.603 281.255 270.215L297.927 282.974L305.342 279.238L301.922 286.032L308.208 290.842L322.66 268.3Z" fill="#2F2E41"/>
<path d="M313.778 246.147L326.323 259.881C335.047 253.951 362.479 231.196 384.002 218.504C397.911 210.285 408.65 204.016 408.65 204.016C408.65 204.016 410.404 206.01 413.196 209.138C423.415 220.608 447.504 247.268 449.386 245.979C451.775 244.343 454.911 246.469 455.091 251.499C455.225 255.166 461.666 257.156 465.154 257.977C466.464 258.278 467.355 258.423 467.355 258.423C467.971 258.729 468.587 259.035 469.192 259.322C488.808 268.581 510.031 263.083 523.545 249.435C528.389 244.581 532.137 238.747 534.538 232.324C536.938 225.901 537.935 219.038 537.461 212.197L535.458 181.233L490.503 184.072L484.171 200.053L468.801 190.064L435.151 168.197L422.863 160.209C422.863 160.209 423.157 160.137 422.653 158.824C421.156 158.21 419.606 157.73 418.023 157.392C417.755 157.33 417.488 157.279 417.222 157.237C402.193 154.513 392.353 166.88 392.353 166.88C392.353 166.88 329.72 219.855 327.111 220.569C324.504 221.293 323.437 225.722 323.228 226.77C323.023 227.758 319.375 233.604 317.462 233.68C311.494 233.932 313.778 246.147 313.778 246.147Z" fill="#2F2E41"/>
<path d="M516.267 281.334C525.677 261.194 594.297 280.664 598.807 236.654C600.047 223.844 590.447 212.774 581.327 203.694C516.457 158.834 643.117 125.684 593.907 81.3942C586.434 77.0414 578.498 73.5364 570.247 70.9442C558.857 67.5942 550.357 68.2142 543.917 71.7142C542.979 72.2261 542.077 72.8007 541.217 73.4342C512.997 94.2842 530.067 178.524 500.447 204.684C489.167 213.584 439.277 230.824 431.267 244.264C431.055 244.626 430.865 245 430.697 245.384C427.956 250.659 489.785 265.029 484.697 277.384C477.697 294.384 516.872 319.169 516.267 281.334Z" fill="#F2F2F2"/>
<path d="M654.67 358.817C654.67 358.974 654.64 359.129 654.58 359.273C654.521 359.418 654.433 359.549 654.322 359.66C654.212 359.77 654.08 359.858 653.936 359.918C653.791 359.977 653.636 360.008 653.48 360.007H1.18982C0.874212 360.007 0.571557 359.882 0.348389 359.659C0.12522 359.435 -0.000183105 359.133 -0.000183105 358.817C-0.000183105 358.502 0.12522 358.199 0.348389 357.976C0.571557 357.753 0.874212 357.627 1.18982 357.627H653.48C653.636 357.627 653.791 357.657 653.936 357.717C654.08 357.777 654.212 357.864 654.322 357.975C654.433 358.085 654.521 358.217 654.58 358.361C654.64 358.506 654.67 358.661 654.67 358.817Z" fill="#CCCCCC"/>
<path d="M461.697 175.839C461.697 182.19 456.334 194.384 487.697 194.384C519.06 194.384 575.272 182.19 575.272 175.839C575.272 169.488 549.847 164.339 518.485 164.339C487.122 164.339 461.697 169.488 461.697 175.839Z" fill="#F2F2F2"/>
</g>
<defs>
<clipPath id="clip0_103_2">
<rect width="654.67" height="360.007" fill="white" transform="matrix(-1 0 0 1 654.67 0)"/>
</clipPath>
</defs>
</svg>
